<svg xmlns="http://www.w3.org/2000/svg" xml:space="preserve" width="1903" height="493" version="1.0" style="shape-rendering:geometricPrecision;text-rendering:geometricPrecision;image-rendering:optimizeQuality;fill-rule:evenodd;clip-rule:evenodd" viewBox="0 0 1120.45 290.21">
  <defs>
    <linearGradient id="wave-gradient" x1="0%" y1="0%" x2="100%" y2="0%">
      <stop offset="0%" stop-color="#0D25D9" />
      <stop offset="0" stop-color="#0D25D9">
        <animate attributeName="offset" values="-0.4; 1.1" dur="4s" repeatCount="indefinite" />
      </stop>
      <stop offset="0" stop-color="#0cf">
        <animate attributeName="offset" values="-0.2; 1.3" dur="4s" repeatCount="indefinite" />
      </stop>
      <stop offset="0" stop-color="#0D25D9">
        <animate attributeName="offset" values="0; 1.5" dur="4s" repeatCount="indefinite" />
      </stop>
      <stop offset="100%" stop-color="#0D25D9" />
    </linearGradient>
    <pattern id="wave-anim" patternUnits="userSpaceOnUse" width="200" height="50">
      <path fill="url(#wave-gradient)" d="M0 0h200v50H0z">
        <animateTransform attributeName="transform" type="translate" from="-200 0" to="0 0" dur="3s" repeatCount="indefinite"/>
      </path>
    </pattern>
    <linearGradient id="solar-sweep" x1="0%" y1="0%" x2="100%" y2="100%">
      <stop offset="0%" stop-color="#0d25d9" />
      <stop offset="0" stop-color="#0d25d9">
        <animate attributeName="offset" values="-0.32; 1.68" dur="5s" repeatCount="indefinite" />
      </stop>
      <stop offset="0" stop-color="#0f26d9">
        <animate attributeName="offset" values="-0.26; 1.74" dur="5s" repeatCount="indefinite" />
      </stop>
      <stop offset="0" stop-color="#6e89ff">
        <animate attributeName="offset" values="-0.2; 1.8" dur="5s" repeatCount="indefinite" />
      </stop>
      <stop offset="0" stop-color="#0f26d9">
        <animate attributeName="offset" values="-0.14; 1.86" dur="5s" repeatCount="indefinite" />
      </stop>
      <stop offset="0" stop-color="#0d25d9">
        <animate attributeName="offset" values="-0.08; 1.92" dur="5s" repeatCount="indefinite" />
      </stop>
      <stop offset="100%" stop-color="#0d25d9" />
    </linearGradient>
    <style>
      @keyframes spin {
        to {
          transform: rotate(360deg);
        }
      }
      @keyframes solar-shine {
        0%, 100% {
          filter: drop-shadow(0 0 2px rgba(255, 255, 255, .2));
        }
        50% {
          filter: drop-shadow(0 0 5px rgba(255, 255, 255, .4));
        }
      }
      .fil2 {
        fill: #0d25d9;
        fill-rule: nonzero;
      }
      .fil2, .icon {
        stroke: #fff;
        stroke-width: 2;
        paint-order: stroke;
        vector-effect: non-scaling-stroke;
      }
      @keyframes energy-pulse {
        0% {
          stroke-dashoffset: 600;
          stroke-opacity: 0;
        }
        10%, 90% {
          stroke-opacity: 1;
        }
        100% {
          stroke-dashoffset: 0;
          stroke-opacity: 0;
        }
      }
      .energy-group-glow {
        stroke: #fff;
        stroke-width: 1.5;
        stroke-dasharray: 80 600;
        stroke-linecap: round;
        stroke-linejoin: round;
        animation: energy-pulse 4s cubic-bezier(0.4, 0, 0.2, 1) infinite;
        filter: drop-shadow(0 0 2px #fff) drop-shadow(0 0 5px rgba(255, 255, 255, 0.6));
      }
      .spinning-fan {
        transform-origin: 680px 134px;
        animation: spin 6s linear infinite;
      }
      .spinning-fan:hover {
        animation-play-state: paused !important;
        cursor: pointer;
      }
    </style>
  </defs>
  
  <!-- Icon năng lượng -->
  <path class="icon" fill="#f44336" d="M613.32 127.7c.33-3.85 1-7.62 1.96-11.26l-31.85-2.59v5.65zM597.7 36.03l34.86 50.42c2.69-2.69 5.61-5.16 8.73-7.36zm164.08-.15-43.66 43.15c3.12 2.2 6.05 4.66 8.75 7.36zm14.27 78.09-31.81 2.6c.96 3.64 1.62 7.4 1.95 11.26l29.86-8.21z"/>
  <path class="icon" fill="#f44336" d="m790.05 197.59-58.11-41.21a56.8 56.8 0 0 0 4.75-22.81c0-29.27-22.09-53.38-50.51-56.58l-6.63-70.75-6.62 70.79c-28.23 3.37-50.13 27.4-50.13 56.54 0 8.05 1.67 15.7 4.68 22.63l-58.11 41.25 64.8-29.73c10.39 13.84 26.93 22.8 45.58 22.8 18.58 0 35.08-8.9 45.48-22.67z"/>
  <g class="spinning-fan">
    <!-- Vùng đệm trong suốt để dễ hover hơn -->
    <circle cx="680" cy="134" r="60" fill="transparent" />
    <path fill="#fff" d="M731.94 156.38a57 57 0 0 1-6.71 11.47l-45.68-20.96-45.38 20.83a57 57 0 0 1-6.69-11.52l40.75-28.93 4.7-50.24c2.24-.26 4.51-.4 6.82-.4 2.17 0 4.32.12 6.43.36l4.7 50.28z" />
  </g>

  <!-- Logo chính -->
  <path class="fil2" d="M54.76 103.44 42.6 80.6H6.26l12.48 22.84zm14.76 27.7L57.36 108.3H21.41l12.48 22.84zm14.76 27.7-12.17-22.83H36.55l12.49 22.83zm-32.58 4.88 11.77 21.52h41.82l11.83-21.52zm68.1-4.88 12.56-22.83h-35.4L84.8 158.84zm15.24-27.7 12.55-22.84h-35.86l-12.17 22.84zm15.23-27.7 12.56-22.84h-36.34l-12.17 22.84zM172.5 80.6v22.84h32.22V80.6zm0 27.7v22.84h32.22V108.3zm0 27.71v19.17c0 1.28.03 2.5.11 3.66h132.47c.07-1.16.11-2.38.11-3.66v-19.17h-32.22v14.61c0 2.09-.89 3.75-2.63 5.05-1.73 1.27-4.56 1.92-8.46 1.92h-46.52c-3.65 0-6.35-.65-8.06-1.92-1.72-1.3-2.58-2.96-2.58-5.05v-14.61zm.68 27.71c.23 1.24.51 2.4.85 3.48 1.02 3.3 2.96 6.37 5.83 9.25 2.92 2.64 5.42 4.58 7.51 5.83 2.09 1.24 4.9 2.18 8.42 2.8 3.51.63 8.39 1.03 14.63 1.21 6.25.18 15.74.26 28.48.26 12.82 0 22.33-.08 28.5-.26 6.19-.18 11.05-.58 14.57-1.21 3.51-.62 6.28-1.53 8.28-2.74 2.01-1.2 4.52-3.16 7.57-5.89 2.87-2.88 4.81-5.95 5.83-9.25.34-1.08.63-2.24.85-3.48zm132.01-32.58V108.3h-32.22v22.84zm0-27.7V80.6h-32.22v22.84zm132.53 0c-.37-2.19-.88-4.18-1.53-5.96-1.51-4.21-3.84-7.53-7.01-10q-4.74-3.675-12.09-5.28c-4.92-1.06-11.05-1.6-18.35-1.6h-84.28v22.84zm-123.26 4.86v22.84h32.75V108.3zm0 27.71v22.83h32.75v-22.83zm0 27.71v21.92h32.75v-21.92zm90.74-11.62q18.135 0 25.71-9.42c1.53-1.9 2.82-4.12 3.89-6.67h-75.26l18 16.09zm31.25-20.96c1.34-4.99 2.02-10.92 2.02-17.78 0-1.77-.06-3.45-.18-5.06h-36.54c.91.46 1.8 1.03 2.65 1.72 2.49 2.05 3.83 4.56 4 7.5 0 3.63-1.29 6.44-3.87 8.46-2.61 2.03-5.59 3.03-8.97 3.03h-43.85l2.38 2.13zm44.24-27.7V80.6h-32.76v22.84zm69.98 0V80.6h32.76v22.84zm32.76 27.7V108.3h-32.76v10.13h-69.98V108.3h-32.76v22.84zm-32.76 15.35v12.35h32.76v-22.83h-135.5v22.83h32.76v-12.35zm-69.98 17.23v21.92h-32.76v-21.92zm69.98 0v21.92h32.76v-21.92z" style="fill:url(#solar-sweep);transform-box:fill-box;transform-origin:center;animation:solar-shine 4s ease-in-out infinite"/>  
  <!-- Text "ENERGY" -->
  <path class="fil2" d="m806.92 105.85.38.98 63.63 78.41h53.02V80.6H893.1v79.27l-.53-1.37-63.09-77.9h-53.43v104.64h30.87zm261.21-25.25h-98.11c-11.67 0-20.33 2.47-26.03 7.37-5.7 4.92-8.56 12.14-8.56 21.66v48.35c0 4.44.49 8.11 1.47 11.03.99 2.91 2.79 5.52 5.44 7.81 2.27 2.23 4.74 3.94 7.41 5.12 2.68 1.2 6.1 2.1 10.27 2.7 4.19.57 9.31.96 15.37 1.13 6.07.18 14.89.27 26.45.27q17.37 0 26.52-.27c6.12-.17 11.27-.56 15.5-1.13q6.315-.9 10.53-2.7c2.81-1.18 5.39-2.89 7.73-5.12 2.4-2.38 4.05-5.03 4.99-7.95.93-2.91 1.4-6.55 1.4-10.89v-35.94h-68.16v19.75h39.73v12.07q0 2.67-2.28 4.35c-1.54 1.11-4.03 1.66-7.5 1.66h-56.63c-3.83 0-6.39-.38-7.71-1.15-1.31-.76-1.96-2.36-1.96-4.86v-41.95c0-1.52.76-2.81 2.3-3.88 1.51-1.06 3.96-1.6 7.37-1.6h94.46z"/>
  
  <!-- Icon @ -->
  <path d="M1097.44 64.67c9.26 0 16.78 7.39 16.78 16.5s-7.52 16.5-16.78 16.5c-9.25 0-16.77-7.39-16.77-16.5s7.52-16.5 16.77-16.5zm-6.66 24.81V72.86h7.18c1.8 0 3.11.16 3.93.45.82.3 1.47.82 1.97 1.59.49.77.74 1.63.74 2.62 0 1.24-.38 2.28-1.13 3.09-.73.82-1.85 1.33-3.33 1.53.74.43 1.34.9 1.82 1.4.49.51 1.13 1.4 1.94 2.7l2.07 3.24h-4.08l-2.47-3.61c-.88-1.3-1.48-2.11-1.8-2.45s-.66-.56-1.02-.69c-.36-.12-.93-.19-1.72-.19l-.69.01v6.93zm3.41-9.59h2.52c1.64 0 2.66-.07 3.07-.2.41-.14.72-.37.95-.71.23-.33.35-.75.35-1.24 0-.57-.15-1.01-.45-1.36-.31-.34-.74-.56-1.3-.65-.26-.04-1.1-.05-2.48-.05h-2.66zm3.25-11.54c7.19 0 13.03 5.75 13.03 12.82 0 7.08-5.84 12.82-13.03 12.82s-13.02-5.75-13.02-12.82 5.83-12.82 13.02-12.82z" style="fill:#0d25d9;stroke:#fff;stroke-width:2;paint-order:stroke;vector-effect:non-scaling-stroke"/>
  
  <!-- Wave pattern -->
  <path class="fil2" d="M40.64 223.94c95.58-71.99 384.72 8.35 528.73-26.49-158.99 54.59-430.88-20.28-528.73 26.49z" style="fill:url(#wave-gradient);stroke:none;transition:all .3s ease-in-out"/>
  
  <!-- Text "VŨ PHONG" -->
  <path class="fil2" d="M113.25 262.85h3.32c0 .35 0 .57.02.64.02 1.22.1 2.03.24 2.42.15.39.46.68.93.88.76.34 3.38.5 7.83.5q4.86 0 6.96-.48 1.92-.42 1.92-3.09c0-.93-.1-1.62-.31-2.06-.21-.45-.55-.75-1.02-.92-.53-.19-1.28-.29-2.24-.33-.96-.03-4.14-.04-9.54-.04-1.85 0-3.33-.18-4.47-.53-1.14-.34-2.01-.9-2.62-1.69-.71-.89-1.07-2.25-1.07-4.05 0-2.01.57-3.48 1.72-4.4.55-.45 1.17-.8 1.85-1.04.68-.23 1.62-.42 2.81-.56 1.94-.24 4.26-.35 6.93-.35 2.49 0 4.42.13 5.8.38q2.07.39 3.24 1.35c.65.52 1.1 1.13 1.33 1.82.24.69.36 1.8.38 3.31h-3.39v-.5c0-1.04-.12-1.74-.34-2.1-.31-.51-1.02-.88-2.12-1.12-1.1-.23-2.78-.35-5.03-.35-2.82 0-4.92.1-6.29.31-1.38.21-2.3.54-2.77.99-.43.45-.65 1.2-.65 2.26 0 .97.11 1.65.33 2.03.21.39.63.68 1.25.87.96.31 2.84.48 5.64.5.97.01 3.34.02 7.14.03 1.6.01 2.85.17 3.73.47.88.31 1.6.83 2.15 1.56.69.92 1.03 2.23 1.03 3.92q0 2.415-.84 3.81-1.02 1.68-3.75 2.25c-1.82.37-5.03.56-9.63.56-2.44 0-4.25-.08-5.42-.23-1.18-.14-2.11-.42-2.82-.82-.85-.48-1.44-1.1-1.77-1.83-.31-.73-.47-1.81-.47-3.23 0-.06 0-.44.01-1.14zm51.94-15.03h3.4v22.19h-3.4zm31.3 0h5.22L220.88 267h.31v-19.18h3.4v22.19h-5.31l-19.12-19.13h-.28v19.13h-3.39zm78.29 14.39h3.32c-.08 2.1-.2 3.53-.36 4.28-.37 1.7-1.51 2.75-3.43 3.14-1.49.3-4.14.45-7.93.45q-7.38 0-9.99-.51c-1.72-.35-2.87-1.24-3.45-2.66-.59-1.43-.88-3.97-.88-7.65 0-3.51.22-6.05.65-7.63.53-1.95 1.91-3.09 4.15-3.41 2.07-.32 5.09-.47 9.07-.47 3.8 0 6.53.19 8.19.56.87.2 1.61.57 2.23 1.13.62.55 1.02 1.19 1.19 1.92.15.65.25 1.98.27 4.01h-3.19c-.01-.48-.02-.79-.02-.92 0-1.04-.1-1.76-.29-2.18s-.54-.73-1.07-.93c-1.05-.43-3.53-.64-7.45-.64-2.87 0-5 .08-6.41.22-1.42.15-2.32.38-2.71.69-.39.33-.68 1.01-.87 2.06-.19 1.04-.29 2.52-.29 4.42 0 .9.03 2.06.11 3.48s.15 2.39.23 2.92c.12.82.37 1.4.75 1.75s1 .56 1.85.64c1.64.16 4 .25 7.06.25.95 0 2.17-.02 3.68-.09 1.51-.06 2.47-.11 2.88-.16q1.17-.15 1.71-.45c.35-.19.6-.5.72-.9.15-.37.23-1.48.28-3.32zm30.35 7.8v-22.19h21.93v2.88h-18.54v6.36h17.75v2.89h-17.75v7.18h18.56v2.88zm130.77-2.81v2.81h-24.66c-.06-.92-.08-1.77-.08-2.53 0-2.37.25-4.04.77-5 .4-.77.96-1.36 1.66-1.78.7-.41 1.65-.74 2.86-.98.92-.16 3.36-.35 7.34-.59 2.48-.13 4.18-.26 5.09-.37.93-.11 1.62-.27 2.09-.48.55-.24.95-.62 1.2-1.13.26-.52.39-1.23.39-2.15 0-1.93-.47-3.12-1.4-3.59-1.01-.52-3.55-.78-7.61-.78-1.41 0-2.82.06-4.22.16-1.41.1-2.36.22-2.85.34-.55.15-.96.39-1.24.72-.29.33-.47.81-.55 1.45-.07.38-.11 1.44-.12 3.19h-3.25c0-2.01.07-3.41.21-4.19.13-.79.43-1.48.88-2.08a5.06 5.06 0 0 1 1.71-1.45c.66-.33 1.51-.58 2.52-.73 1.49-.2 3.36-.3 5.64-.3 1.56 0 3.29.04 5.2.15 1.91.1 3.22.21 3.92.34.9.15 1.69.47 2.36.97.66.5 1.15 1.11 1.46 1.82.34.82.51 2.04.51 3.64 0 1.35-.12 2.4-.37 3.16-.24.77-.68 1.43-1.31 1.99-.62.52-1.35.92-2.17 1.18-.83.27-1.97.47-3.43.59-2.27.22-5.35.42-9.24.62q-2.205.12-3.12.51c-.62.25-1.04.7-1.26 1.33-.19.5-.3 1.55-.31 3.16zm39.35-19.45c4.34 0 7.38.17 9.1.51 1.57.33 2.72 1.12 3.44 2.36q.555.945.78 2.7c.15 1.17.23 2.86.23 5.07 0 2.95-.15 5.27-.45 6.97-.33 1.82-1.16 3.05-2.48 3.68-.77.37-1.97.64-3.62.8q-2.46.24-6.63.24c-3.76 0-6.52-.21-8.27-.64q-3.36-.84-3.87-4.5-.3-2.13-.3-5.97c0-2.89.16-5.13.5-6.75.41-2.06 1.58-3.34 3.49-3.85 1.56-.41 4.26-.62 8.08-.62zm.11 2.88c-2.56 0-4.41.08-5.53.23-1.14.15-1.88.4-2.24.74-.43.45-.72 1.47-.88 3.08-.14 1.46-.21 2.99-.21 4.6 0 3.85.33 6.11.99 6.8.73.74 3.42 1.12 8.07 1.12 2.83 0 4.91-.09 6.25-.26 1.35-.17 2.21-.45 2.59-.84q1.08-1.065 1.08-6.66c0-2.3-.09-4.07-.25-5.32-.16-1.24-.42-2.05-.74-2.42-.43-.48-1.41-.77-2.95-.89-1.34-.11-3.4-.18-6.18-.18zm52.36-2.88c4.34 0 7.38.17 9.11.51 1.56.33 2.71 1.12 3.43 2.36q.555.945.78 2.7c.15 1.17.23 2.86.23 5.07 0 2.95-.15 5.27-.45 6.97-.33 1.82-1.16 3.05-2.48 3.68-.77.37-1.97.64-3.62.8q-2.46.24-6.63.24c-3.76 0-6.52-.21-8.27-.64q-3.36-.84-3.87-4.5-.3-2.13-.3-5.97c0-2.89.16-5.13.5-6.75.41-2.06 1.58-3.34 3.49-3.85 1.56-.41 4.26-.62 8.08-.62zm.11 2.88c-2.56 0-4.41.08-5.53.23-1.13.15-1.88.4-2.24.74-.43.45-.72 1.47-.88 3.08-.14 1.46-.21 2.99-.21 4.6 0 3.85.33 6.11.99 6.8.73.74 3.42 1.12 8.07 1.12 2.83 0 4.92-.09 6.25-.26 1.35-.17 2.21-.45 2.59-.84q1.08-1.065 1.08-6.66c0-2.3-.08-4.07-.25-5.32-.16-1.24-.42-2.05-.74-2.42-.43-.48-1.42-.77-2.95-.89-1.34-.11-3.4-.18-6.18-.18zm40.61 12.83h3.32c0 .92.06 1.58.17 1.99.12.41.32.73.62.96.41.36 1.04.59 1.88.71.84.13 2.29.19 4.36.19 3 0 5.21-.07 6.64-.21 1.44-.14 2.43-.37 2.99-.69.34-.2.59-.49.75-.86s.28-.98.37-1.83c.1-1.07.16-2.39.16-3.97v-.15c-.14.22-.65.56-1.53 1.01-.61.32-1.48.53-2.59.64-1.1.11-2.85.16-5.24.16-2.88 0-4.94-.06-6.2-.18s-2.27-.36-3.05-.73c-.87-.41-1.51-1.1-1.9-2.08-.4-.98-.61-2.27-.61-3.89 0-1.73.25-3.06.74-4.01.4-.72.95-1.27 1.66-1.65.71-.39 1.7-.65 2.96-.81 1.75-.21 3.95-.31 6.59-.31 3.61 0 6.28.15 8 .47 1.34.24 2.43.85 3.25 1.82.53.61.88 1.46 1.05 2.57.17 1.1.25 2.93.25 5.48 0 4.1-.18 6.78-.56 8.05-.34 1.23-.97 2.12-1.88 2.68-.91.55-2.3.91-4.16 1.07-1.65.14-4.27.21-7.84.21-2.81 0-4.8-.12-6-.35-1.19-.24-2.16-.72-2.9-1.44-.5-.5-.84-1.06-1.01-1.68-.17-.63-.27-1.68-.29-3.17zm13.97-12.84c-4.07 0-6.79.11-8.17.34q-1.26.225-1.77.93c-.34.48-.5 1.3-.5 2.47 0 1.79.3 2.93.89 3.41q.6.495 2.13.63c1.02.09 3.3.14 6.84.14 1.98 0 3.39-.05 4.22-.15.83-.09 1.49-.28 2-.57.53-.31.9-.69 1.12-1.13q.33-.66.33-1.95c0-1.18-.15-2.03-.45-2.57-.31-.54-.83-.92-1.58-1.14-.92-.27-2.61-.41-5.06-.41z"/>
  
  <!-- Text phụ -->
  <path class="energy-group-glow" d="M696.64 270.73v-45.15h33.42v7.63h-24.28v10.03h22.58v7.63h-22.58v12.23h25.16v7.63zm71.76 0h-8.64v-16.68c0-3.53-.19-5.81-.56-6.84-.38-1.04-.97-1.84-1.82-2.42-.84-.57-1.84-.86-3.02-.86-1.52 0-2.87.41-4.07 1.23-1.21.82-2.03 1.92-2.47 3.26-.45 1.36-.67 3.86-.67 7.51v14.8h-8.64v-32.72h8.01v4.8c2.87-3.67 6.47-5.5 10.83-5.5 1.92 0 3.67.35 5.26 1.03 1.6.7 2.79 1.57 3.6 2.63a9.5 9.5 0 0 1 1.71 3.63c.32 1.36.48 3.29.48 5.82zm27.67-10.34 8.64 1.45c-1.1 3.16-2.86 5.57-5.24 7.23-2.4 1.65-5.4 2.48-8.98 2.48-5.69 0-9.9-1.86-12.62-5.58-2.16-2.98-3.24-6.75-3.24-11.3 0-5.42 1.42-9.68 4.25-12.74 2.82-3.08 6.41-4.62 10.74-4.62 4.85 0 8.69 1.61 11.51 4.83 2.8 3.21 4.15 8.14 4.02 14.78h-21.63c.07 2.57.76 4.56 2.09 5.99s2.99 2.15 4.96 2.15c1.36 0 2.5-.37 3.41-1.11.92-.73 1.62-1.92 2.09-3.56zm.51-8.76c-.07-2.52-.71-4.43-1.94-5.73-1.23-1.32-2.72-1.97-4.49-1.97-1.88 0-3.43.7-4.66 2.07-1.23 1.38-1.83 3.26-1.81 5.63zm23.91 19.1h-8.64v-32.72h8v4.64q2.07-3.3 3.72-4.32c1.11-.68 2.36-1.02 3.76-1.02 1.97 0 3.88.55 5.7 1.63l-2.68 7.55c-1.46-.95-2.81-1.42-4.06-1.42-1.22 0-2.25.33-3.09 1s-1.51 1.87-1.99 3.61c-.48 1.75-.72 5.4-.72 10.96zm15.45 2.08 9.91 1.2c.16 1.17.54 1.97 1.13 2.41.83.62 2.12.93 3.89.93 2.26 0 3.95-.33 5.09-1.02.75-.45 1.33-1.17 1.72-2.18.26-.72.4-2.05.4-3.97l.04-4.79c-2.61 3.57-5.88 5.34-9.84 5.34-4.39 0-7.88-1.86-10.44-5.57-2.02-2.93-3.03-6.59-3.03-10.95 0-5.49 1.32-9.67 3.96-12.56s5.93-4.34 9.86-4.34c4.05 0 7.39 1.78 10.02 5.33v-4.63h8.07v29.34c0 3.86-.32 6.75-.96 8.65-.63 1.91-1.52 3.4-2.68 4.5-1.14 1.08-2.68 1.94-4.6 2.55-1.93.62-4.35.92-7.29.92-5.55 0-9.48-.95-11.8-2.85-2.32-1.92-3.48-4.32-3.48-7.26 0-.28.01-.64.03-1.05zm7.76-19.1c0 3.46.67 6 2.01 7.61 1.34 1.6 3 2.41 4.97 2.41 2.1 0 3.89-.83 5.34-2.48 1.46-1.65 2.18-4.09 2.18-7.32 0-3.39-.69-5.9-2.09-7.54-1.38-1.64-3.15-2.46-5.28-2.46-2.07 0-3.78.81-5.12 2.42s-2.01 4.06-2.01 7.36zm27.42-15.7h9.21l7.85 23.21 7.66-23.21h8.95l-11.54 31.49-2.08 5.69c-.76 1.9-1.49 3.35-2.18 4.36-.69 1-1.48 1.82-2.38 2.44-.89.63-1.99 1.11-3.31 1.46-1.3.35-2.78.52-4.43.52-1.66 0-3.3-.17-4.91-.52l-.76-6.75c1.36.26 2.59.4 3.68.4 2.02 0 3.51-.59 4.48-1.77.96-1.19 1.71-2.71 2.23-4.53zm77.81 16.14v-7.63h19.62v18.01c-1.91 1.86-4.67 3.49-8.3 4.91-3.61 1.41-7.28 2.11-11 2.11-4.72 0-8.83-.99-12.34-2.97-3.5-1.99-6.14-4.84-7.9-8.53-1.77-3.68-2.65-7.71-2.65-12.05 0-4.71.99-8.89 2.95-12.56 1.98-3.66 4.86-6.47 8.65-8.43 2.9-1.5 6.5-2.25 10.81-2.25 5.6 0 9.98 1.18 13.13 3.53 3.15 2.37 5.17 5.62 6.08 9.78l-9.08 1.7c-.63-2.22-1.83-3.97-3.59-5.26-1.74-1.29-3.93-1.93-6.55-1.93-3.98 0-7.14 1.26-9.48 3.8-2.35 2.53-3.52 6.28-3.52 11.25 0 5.37 1.18 9.4 3.56 12.08s5.5 4.02 9.35 4.02c1.9 0 3.82-.38 5.73-1.12 1.92-.75 3.56-1.66 4.94-2.73v-5.73zm36.25 16.58h-8.64v-32.72h8.01v4.64q2.07-3.3 3.72-4.32 1.665-1.02 3.75-1.02c1.98 0 3.88.55 5.71 1.63l-2.68 7.55c-1.46-.95-2.82-1.42-4.07-1.42-1.22 0-2.24.33-3.09 1-.84.67-1.5 1.87-1.98 3.61-.49 1.75-.73 5.4-.73 10.96zm14.26-16.76c0-2.88.71-5.67 2.13-8.36 1.42-2.7 3.42-4.75 6.02-6.16 2.6-1.42 5.48-2.14 8.69-2.14 4.95 0 9 1.61 12.16 4.83s4.74 7.28 4.74 12.2c0 4.96-1.6 9.07-4.78 12.32-3.2 3.26-7.21 4.89-12.06 4.89-2.99 0-5.85-.68-8.57-2.04-2.71-1.35-4.78-3.34-6.2-5.97-1.42-2.61-2.13-5.81-2.13-9.57zm8.9.46c0 3.25.76 5.74 2.3 7.46 1.54 1.74 3.43 2.6 5.69 2.6 2.25 0 4.14-.86 5.67-2.6 1.52-1.72 2.29-4.23 2.29-7.52 0-3.21-.77-5.68-2.29-7.4-1.53-1.73-3.42-2.6-5.67-2.6-2.26 0-4.15.87-5.69 2.6-1.54 1.72-2.3 4.21-2.3 7.46zm53.27 16.3v-4.9c-1.2 1.75-2.76 3.14-4.71 4.18a12.9 12.9 0 0 1-6.15 1.54c-2.2 0-4.18-.48-5.92-1.45-1.76-.97-3.02-2.33-3.8-4.08-.79-1.75-1.18-4.17-1.18-7.26v-20.75h8.64v15.07c0 4.61.16 7.43.49 8.47.31 1.04.89 1.87 1.74 2.47.84.61 1.91.91 3.22.91 1.48 0 2.8-.41 3.98-1.22s1.98-1.82 2.41-3.03c.43-1.2.65-4.15.65-8.84v-13.83h8.64v32.72zm16.64-32.72h8.07v4.8c1.05-1.64 2.46-2.97 4.24-3.98 1.79-1.01 3.78-1.52 5.95-1.52 3.8 0 7.02 1.49 9.67 4.48 2.65 2.97 3.97 7.13 3.97 12.45 0 5.48-1.33 9.72-4 12.76s-5.91 4.55-9.71 4.55q-2.715 0-4.92-1.08c-1.46-.72-3.02-1.94-4.63-3.69v16.37h-8.64zm8.51 15.85c0 3.69.72 6.42 2.18 8.18 1.45 1.76 3.23 2.64 5.31 2.64 2.01 0 3.68-.81 5.02-2.43 1.33-1.62 1.99-4.27 1.99-7.95 0-3.45-.68-6.01-2.06-7.68-1.36-1.67-3.07-2.5-5.09-2.5-2.12 0-3.87.82-5.26 2.46-1.4 1.64-2.09 4.07-2.09 7.28z" style="fill-rule:nonzero;fill:#ff5528;stroke:#fff;stroke-width:2;paint-order:stroke;vector-effect:non-scaling-stroke"/>

</svg>